<!DOCTYPE svg PUBLIC "-//W3C//DTD SVG 20010904//EN" "http://www.w3.org/TR/2001/REC-SVG-20010904/DTD/svg10.dtd">
<svg version="1.0" xmlns="http://www.w3.org/2000/svg" width="500px" height="400px" viewBox="0 0 5000 4000" preserveAspectRatio="xMidYMid meet">
<g id="layer1" fill="#000000" stroke="none">
 <path d="M3974 2799 c-49 -14 -74 -49 -77 -106 -1 -38 3 -56 17 -72 17 -19 20 -38 20 -159 1 -130 -9 -276 -20 -305 -3 -8 0 -42 5 -77 10 -61 9 -63 -17 -93 -57 -64 -197 -197 -207 -197 -10 0 -125 116 -125 125 0 3 8 5 18 5 18 0 42 23 60 57 5 10 10 84 10 166 1 81 4 153 9 160 4 6 6 93 5 192 -2 137 -6 183 -16 193 -10 11 -64 16 -207 22 -107 5 -230 13 -273 20 -55 8 -173 9 -395 4 -410 -9 -654 -9 -821 0 -145 8 -438 -15 -451 -35 -26 -43 -68 -392 -49 -404 5 -3 7 -12 3 -20 -3 -9 0 -22 6 -29 7 -8 11 -42 10 -78 -3 -118 2 -177 14 -185 27 -17 84 -33 122 -33 34 0 43 -5 58 -31 16 -30 20 -31 63 -26 46 5 73 26 74 60 0 18 25 24 35 8 3 -6 26 -13 50 -17 25 -3 45 -9 45 -13 0 -3 -38 -43 -84 -89 -70 -70 -88 -82 -108 -77 -13 3 -63 38 -112 78 -48 40 -94 76 -101 81 -8 6 -26 -4 -56 -35 -24 -25 -64 -61 -89 -80 -24 -18 -55 -44 -69 -56 -31 -30 -42 -29 -74 4 -42 45 -47 93 -37 368 5 138 9 311 10 386 0 121 2 138 19 153 47 42 34 105 -26 123 -40 12 -55 12 -136 -5 -43 -9 -97 -48 -97 -71 0 -19 23 -71 31 -71 5 0 9 -7 9 -15 0 -8 4 -15 9 -15 6 0 9 -80 9 -197 -1 -109 2 -245 6 -303 15 -205 15 -224 6 -236 -6 -6 -7 -21 -2 -34 4 -12 5 -45 1 -73 -4 -29 -5 -72 -2 -97 3 -30 1 -40 -5 -32 -7 10 -11 5 -16 -18 -8 -44 -8 -52 4 -45 6 3 10 1 10 -6 0 -12 41 -59 94 -107 16 -15 70 -69 120 -121 50 -51 125 -121 167 -155 71 -58 154 -147 224 -241 16 -22 44 -54 61 -70 17 -17 34 -41 38 -53 8 -25 51 -36 115 -28 25 3 104 8 175 11 72 3 155 8 183 11 29 3 58 2 64 -2 16 -9 172 -5 234 7 57 11 350 12 591 3 l161 -6 47 36 c26 20 54 36 62 36 29 0 137 84 223 173 152 159 371 377 416 414 l49 42 10 83 c11 93 12 233 3 448 -3 82 -1 166 5 192 5 26 10 122 11 215 l2 167 39 11 c27 8 42 19 48 35 16 44 1 67 -66 105 -64 36 -88 40 -142 24z m132 -62 c24 -11 44 -27 44 -34 0 -7 -20 -22 -43 -33 -39 -18 -45 -26 -55 -68 -5 -26 -8 -51 -5 -56 6 -8 4 -85 -3 -196 -2 -25 -3 -109 -4 -187 -1 -141 -9 -174 -34 -142 -6 8 -20 19 -31 25 -18 11 -20 21 -18 105 3 119 10 162 26 152 9 -5 9 -3 1 8 -13 18 -17 250 -4 285 9 22 6 29 -20 54 -36 33 -38 65 -8 98 20 20 29 23 67 17 24 -4 63 -16 87 -28z m-2888 11 c19 -19 14 -36 -17 -68 l-29 -31 -1 -152 c-1 -224 -11 -566 -17 -614 -3 -24 -9 -43 -13 -43 -18 0 -41 51 -41 90 0 23 -4 39 -8 36 -4 -2 -5 23 -2 57 4 34 3 85 -2 112 -4 28 -8 138 -8 245 1 303 3 278 -21 282 -12 2 -27 11 -33 20 -14 23 16 55 58 62 16 3 31 8 34 11 10 10 88 5 100 -7z m1888 -59 c32 -1 88 -9 124 -16 36 -8 74 -13 85 -12 11 1 77 1 147 0 168 -1 164 3 152 -156 -10 -150 -7 -395 7 -411 5 -7 8 -36 6 -65 -3 -40 -10 -57 -27 -71 -23 -19 -24 -19 -43 0 -26 26 -38 152 -15 152 24 0 61 38 54 55 -6 17 -32 20 -41 5 -3 -5 -19 -7 -35 -3 -17 3 -30 1 -30 -4 0 -10 -156 -6 -205 5 -39 9 -270 7 -317 -2 l-37 -8 1 43 c0 24 0 55 -1 69 -7 136 -7 313 1 365 3 22 6 43 7 47 1 6 88 16 102 11 3 -1 32 -3 65 -4z m-1117 -5 l154 -6 -8 -72 c-5 -39 -9 -146 -10 -237 -1 -114 -5 -176 -15 -198 -13 -32 -14 -33 -61 -27 -30 4 -50 3 -54 -4 -5 -8 -22 -9 -49 -4 -22 4 -113 8 -201 9 -166 2 -214 12 -216 42 0 10 -5 54 -11 98 -14 115 -14 220 2 295 7 36 16 69 20 73 9 10 47 17 135 25 119 12 155 12 314 6z m893 -31 c3 -21 1 -58 -4 -83 -5 -25 -6 -79 -3 -120 3 -41 8 -123 11 -182 l6 -108 -69 -2 c-161 -4 -353 -3 -418 3 -38 4 -106 3 -150 -1 -44 -4 -84 -3 -89 1 -5 5 -5 37 1 79 5 41 6 100 1 141 -8 65 -2 144 20 254 l7 40 178 1 c97 0 179 3 182 5 2 3 76 6 164 7 l159 2 4 -37z m251 -540 c3 -5 1 -30 -3 -57 -5 -36 -15 -56 -35 -73 -33 -29 -51 -27 -78 9 -19 26 -26 95 -11 119 6 11 121 12 127 2z m165 -8 c8 -8 -24 -103 -41 -122 -29 -32 -44 -29 -62 13 -21 50 -19 80 6 105 17 17 28 20 57 14 21 -4 38 -8 40 -10z m-1570 -15 c-1 -8 8 -31 20 -50 25 -41 28 -82 7 -100 -12 -10 -21 -5 -50 25 -33 36 -38 38 -102 39 l-68 1 -3 39 c-2 21 -1 43 1 50 3 7 37 11 101 11 80 0 96 -3 94 -15z m484 14 c4 -3 0 -17 -7 -31 -12 -22 -12 -31 0 -53 8 -15 21 -30 30 -34 11 -4 14 -13 9 -32 -6 -23 -4 -26 10 -21 9 4 16 2 16 -4 0 -7 10 -9 28 -4 42 10 72 33 66 50 -4 8 -1 15 6 15 9 0 11 17 8 60 -4 54 -2 60 15 60 15 0 18 -5 13 -25 -4 -14 -9 -45 -12 -69 -6 -38 -3 -45 17 -59 l23 -17 -40 -35 c-39 -36 -106 -85 -144 -105 -17 -9 -29 -5 -68 21 -26 18 -73 50 -104 71 -32 21 -58 41 -58 43 0 3 10 4 23 3 34 -3 85 32 103 71 16 32 16 35 -2 48 -10 7 -26 13 -35 13 -10 0 -24 3 -33 6 -32 12 -15 23 42 27 31 2 64 4 73 5 9 1 18 -1 21 -4z m561 -20 c-4 -10 -9 -12 -15 -6 -12 12 -1 35 12 27 5 -3 6 -13 3 -21z m91 4 c21 -30 20 -51 -4 -73 -18 -17 -21 -17 -45 -1 -17 11 -25 26 -25 44 0 52 46 70 74 30z m97 15 c7 -110 7 -123 -4 -123 -7 0 -54 -43 -106 -95 -51 -52 -99 -95 -106 -95 -8 0 -26 10 -42 23 -15 13 -56 43 -90 66 l-62 43 0 53 c0 54 -9 81 -35 107 -11 12 -6 14 33 13 45 0 46 0 47 -35 1 -65 4 -71 39 -91 22 -14 35 -29 35 -42 1 -25 30 -64 51 -68 29 -6 60 14 89 57 17 24 38 44 46 44 20 0 57 85 50 115 -4 14 -1 25 7 28 19 8 47 8 48 0z m519 -21 c0 -42 -20 -62 -65 -65 -39 -2 -39 -1 -46 38 -4 22 -5 43 -2 48 2 4 29 7 59 7 53 0 54 -1 54 -28z m-1507 5 c6 -1 27 -12 45 -25 18 -13 48 -26 67 -29 41 -7 44 -17 12 -38 -22 -14 -65 -13 -95 4 -8 5 -30 4 -49 -1 -41 -11 -89 -2 -97 18 -4 9 -13 13 -24 10 -13 -5 -22 3 -34 29 -8 19 -13 37 -9 41 5 5 146 -1 184 -9z m370 -26 c4 -19 5 -46 1 -60 -4 -14 -7 -29 -6 -33 1 -5 -6 -8 -17 -8 -22 0 -43 22 -39 41 2 8 -2 13 -8 12 -7 -1 -19 6 -29 17 -16 18 -16 20 9 45 38 38 77 32 89 -14z m373 12 c65 -42 22 -113 -47 -78 -38 20 -57 50 -51 81 4 23 8 25 40 19 19 -3 45 -13 58 -22z m-233 -28 c45 -42 27 -81 -32 -69 -27 6 -31 11 -31 38 0 29 15 56 30 56 3 0 18 -11 33 -25z m861 -29 c1 -10 9 -22 17 -27 19 -12 3 -37 -41 -60 -18 -10 -53 -38 -77 -61 l-43 -42 -34 18 c-19 10 -50 31 -68 47 l-33 29 40 35 c44 38 55 42 55 20 0 -8 5 -15 10 -15 6 0 10 -7 10 -15 0 -16 7 -18 55 -15 36 2 61 29 76 82 10 40 27 42 33 4z m-550 -31 c16 -24 16 -27 -1 -55 -13 -23 -25 -30 -48 -30 -30 0 -55 15 -55 32 0 4 8 8 18 8 27 0 62 29 62 51 0 25 4 24 24 -6z m712 -13 c-10 -10 -29 15 -21 28 6 9 10 8 17 -4 6 -10 7 -20 4 -24z m466 1 c10 -9 18 -20 18 -25 0 -5 14 -36 30 -70 31 -63 36 -104 20 -173 -5 -22 -10 -64 -11 -92 -2 -29 -4 -53 -6 -53 -2 0 -15 7 -28 16 -28 18 -213 34 -282 24 -23 -4 -67 -3 -98 1 -79 10 -713 14 -940 4 -104 -4 -217 -6 -250 -4 -128 8 -831 -2 -1100 -16 -91 -5 -146 -3 -182 6 l-53 12 0 104 0 103 28 -17 c15 -10 29 -20 32 -24 11 -13 133 -99 141 -99 11 0 116 91 176 152 38 38 43 41 65 30 53 -28 71 -41 101 -69 34 -32 122 -83 142 -83 7 0 48 39 91 86 44 48 85 93 92 100 11 12 18 11 44 -4 57 -32 65 -37 119 -78 65 -49 110 -68 139 -59 26 8 180 123 180 135 0 21 36 19 71 -5 21 -14 41 -25 45 -25 4 0 36 -22 73 -49 36 -27 81 -56 98 -65 l33 -16 96 95 c53 52 100 95 105 95 18 0 68 -33 102 -66 12 -12 42 -31 67 -44 25 -12 48 -27 52 -33 7 -12 68 25 116 70 16 16 52 47 79 70 l50 42 29 -19 c16 -10 66 -53 111 -96 85 -83 122 -114 135 -114 14 0 218 215 231 243 14 32 15 32 39 10z m-690 -410 c73 -3 144 -5 158 -4 37 3 76 3 290 -2 261 -6 250 -5 250 -22 0 -14 -94 -111 -246 -256 -27 -26 -71 -72 -99 -104 -64 -74 -163 -175 -172 -175 -3 0 -20 -11 -37 -24 -36 -27 -110 -66 -127 -66 -6 0 -24 -10 -41 -21 -28 -20 -37 -21 -156 -14 -166 9 -580 7 -595 -2 -7 -5 -118 -8 -247 -9 -129 0 -251 -3 -270 -6 -19 -4 -72 -9 -117 -13 -72 -6 -83 -4 -83 10 0 8 -8 19 -17 22 -28 11 -84 65 -100 98 -9 17 -39 55 -67 86 -28 30 -64 71 -81 90 -16 19 -46 45 -65 59 -19 14 -46 34 -60 45 -38 30 -249 248 -261 268 -9 16 0 17 133 18 329 2 698 8 773 13 155 11 349 6 394 -10 14 -5 377 12 561 26 58 4 115 6 127 4 12 -2 82 -7 155 -11z"/>
 </g>
<g id="layer2" fill="#ffffff" stroke="none">
 <path d="M0 2000 l0 -2000 2500 0 2500 0 0 2000 0 2000 -2500 0 -2500 0 0 -2000z m4116 775 c67 -38 82 -61 66 -105 -6 -16 -21 -27 -48 -35 l-39 -11 -2 -167 c-1 -93 -6 -189 -11 -215 -6 -26 -8 -110 -5 -192 9 -215 8 -355 -3 -448 l-10 -83 -49 -42 c-45 -37 -264 -255 -416 -414 -86 -89 -194 -173 -223 -173 -8 0 -36 -16 -62 -36 l-47 -36 -161 6 c-241 9 -534 8 -591 -3 -62 -12 -218 -16 -234 -7 -6 4 -35 5 -64 2 -28 -3 -111 -8 -183 -11 -71 -3 -150 -8 -175 -11 -64 -8 -107 3 -115 28 -4 12 -21 36 -38 53 -17 16 -45 48 -61 70 -70 94 -153 183 -224 241 -42 34 -117 104 -167 155 -50 52 -104 106 -120 121 -53 48 -94 95 -94 107 0 7 -4 9 -10 6 -12 -7 -12 1 -4 45 5 23 9 28 16 18 6 -8 8 2 5 32 -3 25 -2 68 2 97 4 28 3 61 -1 73 -5 13 -4 28 2 34 9 12 9 31 -6 236 -4 58 -7 194 -6 303 0 117 -3 197 -9 197 -5 0 -9 7 -9 15 0 8 -4 15 -9 15 -8 0 -31 52 -31 71 0 23 54 62 97 71 81 17 96 17 136 5 60 -18 73 -81 26 -123 -17 -15 -19 -32 -19 -153 -1 -75 -5 -248 -10 -386 -10 -275 -5 -323 37 -368 32 -33 43 -34 74 -4 14 12 45 38 69 56 25 19 65 55 89 80 30 31 48 41 56 35 7 -5 53 -41 101 -81 49 -40 99 -75 112 -78 20 -5 38 7 108 77 46 46 84 86 84 89 0 4 -20 10 -45 13 -24 4 -47 11 -50 17 -10 16 -35 10 -35 -8 -1 -34 -28 -55 -74 -60 -43 -5 -47 -4 -63 26 -15 26 -24 31 -58 31 -38 0 -95 16 -122 33 -12 8 -17 67 -14 185 1 36 -3 70 -10 78 -6 7 -9 20 -6 29 4 8 2 17 -3 20 -19 12 23 361 49 404 13 20 306 43 451 35 167 -9 411 -9 821 0 222 5 340 4 395 -4 43 -7 166 -15 273 -20 143 -6 197 -11 207 -22 10 -10 14 -56 16 -193 1 -99 -1 -186 -5 -192 -5 -7 -8 -79 -9 -160 0 -82 -5 -156 -10 -166 -18 -34 -42 -57 -60 -57 -10 0 -18 -2 -18 -5 0 -9 115 -125 125 -125 10 0 150 133 207 197 26 30 27 32 17 93 -5 35 -8 69 -5 77 11 29 21 175 20 305 0 121 -3 140 -20 159 -27 30 -23 113 8 146 22 24 64 40 107 42 13 1 53 -15 87 -34z"/>
 <path d="M3952 2748 c-30 -33 -28 -65 8 -98 26 -25 29 -32 20 -54 -13 -35 -9 -267 4 -285 8 -11 8 -13 -1 -8 -16 10 -23 -33 -26 -152 -2 -84 0 -94 18 -105 11 -6 25 -17 31 -25 25 -32 33 1 34 142 1 78 2 162 4 187 7 111 9 188 3 196 -3 5 0 30 5 56 10 42 16 50 55 68 23 11 43 26 43 33 0 18 -77 54 -131 62 -38 6 -47 3 -67 -17z"/>
 <path d="M1118 2755 c-3 -3 -18 -8 -34 -11 -42 -7 -72 -39 -58 -62 6 -9 21 -18 33 -20 24 -4 22 21 21 -282 0 -107 4 -217 8 -245 5 -27 6 -78 2 -112 -3 -34 -2 -59 2 -57 4 3 8 -13 8 -36 0 -39 23 -90 41 -90 4 0 10 19 13 43 6 48 16 390 17 614 l1 152 29 31 c31 32 36 49 17 68 -12 12 -90 17 -100 7z"/>
 <path d="M2988 2692 c-27 -2 -48 -6 -49 -10 -1 -4 -4 -25 -7 -47 -8 -52 -8 -229 -1 -365 1 -14 1 -45 1 -69 l-1 -43 37 8 c47 9 278 11 317 2 49 -11 205 -15 205 -5 0 5 13 7 30 4 16 -4 32 -2 35 3 9 15 35 12 41 -5 7 -17 -30 -55 -54 -55 -23 0 -11 -126 15 -152 19 -19 20 -19 43 0 17 14 24 31 27 71 2 29 -1 58 -6 65 -14 16 -17 261 -7 411 12 159 16 155 -152 156 -70 1 -136 1 -147 0 -11 -1 -49 4 -85 12 -36 7 -92 15 -124 16 -33 1 -62 3 -65 4 -3 1 -27 1 -53 -1z"/>
 <path d="M1675 2678 c-88 -8 -126 -15 -135 -25 -4 -4 -13 -37 -20 -73 -16 -75 -16 -180 -2 -295 6 -44 11 -88 11 -98 2 -30 50 -40 216 -42 88 -1 179 -5 201 -9 27 -5 44 -4 49 4 4 7 24 8 54 4 47 -6 48 -5 61 27 10 22 14 84 15 198 1 91 5 198 10 237 l8 72 -154 6 c-159 6 -195 6 -314 -6z"/>
 <path d="M2555 2681 c-3 -2 -85 -5 -182 -5 l-178 -1 -7 -40 c-22 -110 -28 -189 -20 -254 5 -41 4 -100 -1 -141 -6 -42 -6 -74 -1 -79 5 -4 45 -5 89 -1 44 4 112 5 150 1 65 -6 257 -7 418 -3 l69 2 -6 108 c-3 59 -8 141 -11 182 -3 41 -2 95 3 120 5 25 7 62 4 83 l-4 37 -159 -2 c-88 -1 -162 -4 -164 -7z"/>
 <path d="M3006 2111 c-15 -24 -8 -93 11 -119 27 -36 45 -38 78 -9 20 17 30 37 35 73 4 27 6 52 3 57 -6 10 -121 9 -127 -2z"/>
 <path d="M3201 2101 c-25 -25 -27 -55 -6 -105 18 -42 33 -45 62 -13 17 19 49 114 41 122 -2 2 -19 6 -40 10 -29 6 -40 3 -57 -14z"/>
 <path d="M1533 2094 c-2 -7 -3 -29 -1 -50 l3 -39 68 -1 c64 -1 69 -3 102 -39 29 -30 38 -35 50 -25 21 18 18 59 -7 100 -12 19 -21 42 -20 50 2 12 -14 15 -94 15 -64 0 -98 -4 -101 -11z"/>
 <path d="M2118 2103 c-57 -4 -74 -15 -42 -27 9 -3 23 -6 33 -6 9 0 25 -6 35 -13 18 -13 18 -16 2 -48 -18 -39 -69 -74 -103 -71 -13 1 -23 0 -23 -3 0 -2 26 -22 58 -43 31 -21 78 -53 104 -71 39 -26 51 -30 68 -21 38 20 105 69 144 105 l40 35 -23 17 c-20 14 -23 21 -17 59 3 24 8 55 12 69 5 20 2 25 -13 25 -17 0 -19 -6 -15 -60 3 -43 1 -60 -8 -60 -7 0 -10 -7 -6 -15 6 -17 -24 -40 -66 -50 -18 -5 -28 -3 -28 4 0 6 -7 8 -16 4 -14 -5 -16 -2 -10 21 5 19 2 28 -9 32 -9 4 -22 19 -30 34 -12 22 -12 31 0 53 14 28 10 38 -14 35 -9 -1 -42 -3 -73 -5z"/>
 <path d="M2755 2099 c-4 -6 -3 -15 3 -21 6 -6 11 -4 15 6 7 18 -9 31 -18 15z"/>
 <path d="M2802 2098 c-21 -21 -14 -66 13 -84 24 -16 27 -16 45 1 24 22 25 43 4 73 -17 24 -43 29 -62 10z"/>
 <path d="M2913 2103 c-8 -3 -11 -14 -7 -28 7 -30 -30 -115 -50 -115 -8 0 -29 -20 -46 -44 -29 -43 -60 -63 -89 -57 -21 4 -50 43 -51 68 0 13 -13 28 -35 42 -35 20 -38 26 -39 91 -1 35 -2 35 -47 35 -39 1 -44 -1 -33 -13 26 -26 35 -53 35 -107 l0 -53 62 -43 c34 -23 75 -53 90 -66 16 -13 34 -23 42 -23 7 0 55 43 106 95 52 52 99 95 106 95 11 0 11 13 4 123 -1 8 -29 8 -48 0z"/>
 <path d="M3367 2103 c-3 -5 -2 -26 2 -48 7 -39 7 -40 46 -38 45 3 65 23 65 65 0 27 -1 28 -54 28 -30 0 -57 -3 -59 -7z"/>
 <path d="M1789 2096 c-4 -4 1 -22 9 -41 12 -26 21 -34 34 -29 11 3 20 -1 24 -10 8 -20 56 -29 97 -18 19 5 41 6 49 1 30 -17 73 -18 95 -4 32 21 29 31 -12 38 -19 3 -49 16 -67 29 -18 13 -39 24 -45 25 -38 8 -179 14 -184 9z"/>
 <path d="M2254 2075 c-25 -25 -25 -27 -9 -45 10 -11 22 -18 29 -17 6 1 10 -4 8 -12 -4 -19 17 -41 39 -41 11 0 18 3 17 8 -1 4 2 19 6 33 4 14 3 41 -1 60 -12 46 -51 52 -89 14z"/>
 <path d="M2618 2076 c-6 -31 13 -61 51 -81 32 -16 67 -10 76 12 14 38 -23 76 -87 88 -32 6 -36 4 -40 -19z"/>
 <path d="M2432 2058 c-7 -7 -12 -26 -12 -44 0 -27 4 -32 31 -38 59 -12 77 27 32 69 -32 29 -35 29 -51 13z"/>
 <path d="M3311 2012 c-15 -53 -40 -80 -76 -82 -48 -3 -55 -1 -55 15 0 8 -4 15 -10 15 -5 0 -10 7 -10 15 0 22 -11 18 -55 -20 l-40 -35 33 -29 c18 -16 49 -37 68 -47 l34 -18 43 42 c24 23 59 51 77 61 44 23 60 48 41 60 -8 5 -16 17 -17 27 -6 38 -23 36 -33 -4z"/>
 <path d="M2770 1991 c0 -22 -35 -51 -62 -51 -10 0 -18 -4 -18 -8 0 -17 25 -32 55 -32 23 0 35 7 48 30 17 28 17 31 1 55 -20 30 -24 31 -24 6z"/>
 <path d="M3485 2000 c-4 -6 -2 -17 4 -23 15 -15 25 -2 13 19 -7 12 -11 13 -17 4z"/>
 <path d="M3933 1963 c-13 -28 -217 -243 -231 -243 -13 0 -50 31 -135 114 -45 43 -95 86 -111 96 l-29 19 -50 -42 c-27 -23 -63 -54 -79 -70 -48 -45 -109 -82 -116 -70 -4 6 -27 21 -52 33 -25 13 -55 32 -67 44 -34 33 -84 66 -102 66 -5 0 -52 -43 -105 -95 l-96 -95 -33 16 c-17 9 -62 38 -98 65 -37 27 -69 49 -73 49 -4 0 -24 11 -45 25 -35 24 -71 26 -71 5 0 -12 -154 -127 -180 -135 -29 -9 -74 10 -139 59 -54 41 -62 46 -119 78 -26 15 -33 16 -44 4 -7 -7 -48 -52 -92 -100 -43 -47 -84 -86 -91 -86 -20 0 -108 51 -142 83 -30 28 -48 41 -101 69 -22 11 -27 8 -65 -30 -60 -61 -165 -152 -176 -152 -8 0 -130 86 -141 99 -3 4 -17 14 -32 24 l-28 17 0 -103 0 -104 53 -12 c36 -9 91 -11 182 -6 269 14 972 24 1100 16 33 -2 146 0 250 4 227 10 861 6 940 -4 31 -4 75 -5 98 -1 69 10 254 -6 282 -24 13 -9 26 -16 28 -16 2 0 4 24 6 53 1 28 6 70 11 92 16 69 11 110 -20 173 -16 34 -30 65 -30 70 0 9 -32 42 -41 42 -2 0 -10 -12 -16 -27z"/>
 <path d="M3000 1570 c-184 -14 -547 -31 -561 -26 -45 16 -239 21 -394 10 -75 -5 -444 -11 -773 -13 -133 -1 -142 -2 -133 -18 12 -20 223 -238 261 -268 14 -11 41 -31 60 -45 19 -14 49 -40 65 -59 17 -19 53 -60 81 -90 28 -31 58 -69 67 -86 16 -33 72 -87 100 -98 9 -3 17 -14 17 -22 0 -14 11 -16 83 -10 45 4 98 9 117 13 19 3 141 6 270 6 129 1 240 4 247 9 15 9 429 11 595 2 119 -7 128 -6 156 14 17 11 35 21 41 21 17 0 91 39 127 66 17 13 34 24 37 24 9 0 108 101 172 175 28 32 72 78 99 104 152 145 246 242 246 256 0 17 11 16 -250 22 -214 5 -253 5 -290 2 -30 -3 -282 9 -313 15 -12 2 -69 0 -127 -4z"/>
 </g>

</svg>