<!DOCTYPE svg PUBLIC "-//W3C//DTD SVG 20010904//EN" "http://www.w3.org/TR/2001/REC-SVG-20010904/DTD/svg10.dtd">
<svg version="1.0" xmlns="http://www.w3.org/2000/svg" width="500px" height="400px" viewBox="0 0 5000 4000" preserveAspectRatio="xMidYMid meet">
<g id="layer1" fill="#000000" stroke="none">
 <path d="M1540 3160 c0 -5 -7 -10 -15 -10 -8 0 -15 -9 -15 -20 0 -11 7 -20 15 -20 18 0 19 -12 3 -28 -9 -9 -9 -12 0 -12 7 0 12 -7 12 -15 0 -8 -8 -15 -17 -15 -11 0 -14 -3 -7 -8 11 -8 13 -42 15 -257 0 -97 5 -152 12 -157 7 -4 7 -11 -3 -23 -15 -18 -15 -1 -11 -705 3 -555 -5 -1367 -14 -1411 -5 -22 -2 -28 18 -33 32 -8 85 2 116 21 14 9 35 13 53 9 16 -3 39 -1 49 5 19 10 69 16 202 23 32 2 59 5 60 7 1 2 7 14 14 25 6 12 9 31 7 42 -10 34 87 121 196 177 52 26 106 54 120 61 58 30 288 80 410 89 47 3 114 13 150 21 36 8 79 16 95 17 49 6 65 17 65 46 0 15 4 31 10 37 5 5 11 38 13 72 3 49 0 65 -12 72 -11 7 -13 12 -4 17 7 5 11 37 10 88 -1 44 2 123 7 175 13 140 13 204 -1 420 -11 185 -13 554 -2 575 2 6 5 128 4 271 l0 262 31 20 c25 16 31 26 27 46 -7 36 -79 115 -101 111 -9 -2 -34 -7 -55 -10 -45 -7 -81 -54 -67 -89 26 -70 29 -94 19 -161 -5 -38 -9 -157 -10 -263 0 -160 -3 -193 -14 -188 -8 3 -15 0 -17 -6 -3 -8 -48 -13 -127 -15 l-123 -3 7 33 c4 17 7 42 6 55 0 13 6 37 15 53 36 70 56 466 25 503 -8 9 -20 15 -28 12 -7 -3 -13 -1 -13 5 0 14 -339 2 -388 -13 -23 -7 -42 -6 -64 1 -17 6 -33 9 -36 6 -9 -9 -7 -125 3 -128 7 -3 6 -19 -2 -48 -6 -24 -9 -72 -6 -105 3 -38 1 -64 -6 -68 -5 -4 -8 -13 -4 -21 3 -9 -1 -15 -9 -15 -12 0 -15 -19 -16 -92 0 -51 -3 -149 -5 -218 -2 -69 0 -135 4 -148 7 -18 3 -28 -24 -52 -38 -34 -94 -66 -102 -58 -3 3 -2 23 3 44 5 22 5 52 1 69 -5 16 -7 71 -4 122 2 55 0 95 -6 99 -6 3 -7 19 -3 37 12 47 11 131 -1 140 -7 6 -6 10 3 14 6 2 12 18 12 33 0 16 4 31 9 34 4 3 4 29 -1 58 -5 29 -11 73 -13 98 -9 130 -17 196 -26 211 -5 10 -6 24 -3 33 4 11 -3 16 -28 19 -18 3 -81 13 -140 22 -59 9 -112 14 -118 10 -19 -12 -120 -16 -120 -5 0 5 -9 10 -20 10 -11 0 -20 -4 -20 -10z m1546 -60 c52 -33 56 -81 7 -85 -26 -1 -44 -15 -38 -26 4 -5 3 -15 -2 -21 -4 -7 -8 -119 -8 -249 0 -170 -3 -240 -12 -250 -7 -8 -9 -26 -6 -39 5 -19 3 -22 -11 -17 -10 4 -25 7 -33 7 -14 0 -15 14 -8 123 5 67 9 199 10 292 1 156 0 172 -19 192 -18 21 -18 24 -3 41 10 10 17 24 17 30 0 10 20 17 59 21 7 0 29 -8 47 -19z m-1268 -7 c7 -7 20 -13 28 -13 20 0 94 -48 101 -65 3 -8 10 -15 17 -15 14 0 15 -142 1 -152 -6 -4 -2 -8 8 -8 19 0 23 -25 6 -36 -8 -4 -7 -9 2 -16 11 -7 11 -11 2 -15 -7 -2 -13 -16 -13 -29 0 -13 -6 -24 -12 -24 -10 0 -10 -2 -1 -8 19 -12 36 -114 21 -123 -9 -6 -9 -14 1 -35 6 -15 8 -30 3 -33 -11 -8 -10 -51 1 -51 5 0 6 -8 2 -17 -8 -19 -11 -81 -14 -290 -2 -95 -6 -135 -15 -140 -7 -5 -15 -16 -19 -25 -5 -15 -20 -18 -84 -20 -43 -1 -120 -2 -170 -3 -51 -2 -93 0 -94 4 -1 14 -10 1020 -9 1061 1 24 3 46 5 49 20 19 213 23 233 4z m142 -43 c0 -5 -4 -10 -10 -10 -5 0 -10 5 -10 10 0 6 5 10 10 10 6 0 10 -4 10 -10z m708 -27 c17 -10 31 -24 31 -33 0 -8 1 -41 2 -74 1 -44 -2 -61 -14 -67 -16 -9 -31 -87 -29 -151 2 -42 -14 -52 -80 -49 -21 1 -46 1 -55 1 -157 1 -207 -2 -222 -10 -10 -5 -31 -6 -47 -1 -26 7 -29 12 -29 47 0 21 -3 44 -6 49 -3 6 -7 30 -8 55 -1 25 -4 52 -7 61 -2 9 2 24 11 33 12 12 13 20 5 35 -5 11 -10 36 -10 55 0 20 -4 36 -10 36 -5 0 -10 4 -10 10 0 10 263 6 279 -4 5 -3 11 1 15 9 8 22 144 21 184 -2z m32 -243 c0 -5 -4 -10 -10 -10 -5 0 -10 5 -10 10 0 6 5 10 10 10 6 0 10 -4 10 -10z m-50 -175 c0 -8 -4 -15 -10 -15 -5 0 -10 7 -10 15 0 8 5 15 10 15 6 0 10 -7 10 -15z m-394 -27 c-3 -13 -6 -26 -6 -30 0 -5 -7 -8 -15 -8 -10 0 -15 10 -15 30 0 24 4 30 21 30 17 0 20 -4 15 -22z m170 1 c18 -15 26 -59 14 -73 -12 -16 -67 -18 -92 -5 -10 5 -18 19 -18 29 0 11 -7 20 -15 20 -28 0 -15 27 18 38 34 11 74 7 93 -9z m169 -5 c23 -15 25 -23 25 -84 0 -73 -5 -80 -58 -80 -21 1 -33 11 -54 46 -35 57 -35 78 -2 109 31 29 55 31 89 9z m-347 -101 c2 -15 -4 -23 -18 -28 -31 -10 -45 7 -28 34 16 26 42 23 46 -6z m52 2 c0 -8 -4 -15 -10 -15 -5 0 -10 7 -10 15 0 8 5 15 10 15 6 0 10 -7 10 -15z m80 -50 c0 -8 -4 -15 -10 -15 -5 0 -10 7 -10 15 0 8 5 15 10 15 6 0 10 -7 10 -15z m-99 -20 c13 -13 34 -25 45 -25 23 0 37 -21 28 -43 -2 -7 -20 -19 -39 -26 -29 -10 -40 -10 -70 5 -30 14 -35 21 -35 49 0 31 21 65 40 65 4 0 18 -11 31 -25z m187 19 c25 -7 31 -44 7 -44 -9 0 -27 -7 -40 -16 -25 -17 -55 -13 -55 6 0 13 45 60 57 60 4 0 18 -3 31 -6z m255 -56 c3 -10 7 -10 19 0 11 9 47 12 124 10 l109 -3 -3 -120 c-1 -66 -1 -203 0 -305 6 -440 -2 -707 -21 -720 -11 -6 -11 -18 -3 -56 21 -94 23 -124 11 -162 l-11 -39 -140 -7 c-83 -4 -158 -13 -182 -22 -83 -30 -132 -44 -157 -44 -14 0 -48 -7 -75 -16 -47 -16 -73 -26 -176 -73 -27 -11 -50 -21 -53 -20 -10 1 -80 -64 -80 -75 0 -5 -13 -17 -30 -26 -16 -9 -30 -22 -30 -27 0 -6 -3 -14 -6 -18 -8 -7 -22 62 -15 73 3 5 -1 44 -8 88 -16 95 -14 670 3 687 6 6 5 14 -4 23 -13 13 -13 74 -4 404 0 9 14 25 30 35 30 21 40 49 14 39 -8 -4 -15 -1 -15 5 0 6 4 11 9 11 5 0 12 16 15 35 4 20 18 42 34 54 15 12 32 25 39 30 6 6 23 13 38 17 14 4 32 15 38 25 7 11 18 19 25 19 7 0 15 7 18 15 4 8 14 15 24 15 11 0 22 5 25 11 4 5 17 15 28 20 12 5 36 18 52 29 35 23 48 29 135 63 69 27 96 33 172 36 29 0 48 -4 51 -11z m331 -46 c8 -13 11 -160 3 -168 -7 -7 0 -433 8 -497 4 -27 1 -39 -10 -43 -11 -4 -12 -11 -5 -24 9 -16 -4 -287 -14 -298 -3 -2 0 -17 6 -33 7 -21 7 -33 -1 -43 -6 -7 -8 -15 -5 -18 10 -11 13 -147 4 -153 -6 -4 -10 -19 -10 -36 0 -19 -5 -29 -15 -29 -12 0 -15 14 -17 63 -5 159 -4 228 2 232 4 2 5 179 3 392 -5 451 -5 407 3 551 6 100 8 112 25 112 10 0 20 -4 23 -8z m-844 -62 c0 -11 -4 -20 -10 -20 -5 0 -10 9 -10 20 0 11 5 20 10 20 6 0 10 -9 10 -20z m10 -50 c0 -5 -4 -10 -10 -10 -5 0 -10 5 -10 10 0 6 5 10 10 10 6 0 10 -4 10 -10z m-294 -276 l29 -6 -1 -336 c0 -185 -1 -409 -1 -497 -1 -88 1 -194 3 -235 8 -132 4 -204 -15 -260 l-18 -55 -74 -6 c-41 -3 -79 -2 -85 3 -13 10 -94 2 -106 -10 -11 -11 -56 -4 -65 11 -8 12 -14 284 -14 542 1 99 1 318 1 486 0 382 -14 352 164 355 70 1 130 5 133 8 8 7 13 7 49 0z"/>
 </g>
<g id="layer2" fill="#fdfdfd" stroke="none">
 <path d="M0 2000 l0 -2000 2500 0 2500 0 0 2000 0 2000 -2500 0 -2500 0 0 -2000z m1580 1160 c0 -11 101 -7 120 5 6 4 59 -1 118 -10 59 -9 122 -19 140 -22 25 -3 32 -8 28 -19 -3 -9 -2 -23 3 -33 9 -15 17 -81 26 -211 2 -25 8 -69 13 -98 5 -29 5 -55 1 -58 -5 -3 -9 -18 -9 -34 0 -15 -6 -31 -12 -33 -9 -4 -10 -8 -3 -14 12 -9 13 -93 1 -140 -4 -18 -3 -34 3 -37 6 -4 8 -44 6 -99 -3 -51 -1 -106 4 -122 4 -17 4 -47 -1 -69 -5 -21 -6 -41 -3 -44 8 -8 64 24 102 58 27 24 31 34 24 52 -4 13 -6 79 -4 148 2 69 5 167 5 218 1 73 4 92 16 92 8 0 12 6 9 15 -4 8 -1 17 4 21 7 4 9 30 6 68 -3 33 0 81 6 105 8 29 9 45 2 48 -10 3 -12 119 -3 128 3 3 19 0 36 -6 22 -7 41 -8 64 -1 49 15 388 27 388 13 0 -6 6 -8 13 -5 8 3 20 -3 28 -12 31 -37 11 -433 -25 -503 -9 -16 -15 -40 -15 -53 1 -13 -2 -38 -6 -55 l-7 -33 123 3 c79 2 124 7 127 15 2 6 9 9 17 6 11 -5 14 28 14 188 1 106 5 225 10 263 10 67 7 91 -19 161 -14 35 22 82 67 89 21 3 46 8 55 10 22 4 94 -75 101 -111 4 -20 -2 -30 -27 -46 l-31 -20 0 -262 c1 -143 -2 -265 -4 -271 -11 -21 -9 -390 2 -575 14 -216 14 -280 1 -420 -5 -52 -8 -131 -7 -175 1 -51 -3 -83 -10 -88 -9 -5 -7 -10 4 -17 12 -7 15 -23 12 -72 -2 -34 -8 -67 -13 -72 -6 -6 -10 -22 -10 -37 0 -29 -16 -40 -65 -46 -16 -1 -59 -9 -95 -17 -36 -8 -103 -18 -150 -21 -122 -9 -352 -59 -410 -89 -14 -7 -68 -35 -120 -61 -109 -56 -206 -143 -196 -177 2 -11 -1 -30 -7 -42 -7 -11 -13 -23 -14 -25 -1 -2 -28 -5 -60 -7 -133 -7 -183 -13 -202 -23 -10 -6 -33 -8 -49 -5 -18 4 -39 0 -53 -9 -31 -19 -84 -29 -116 -21 -20 5 -23 11 -18 33 9 44 17 856 14 1411 -4 704 -4 687 11 705 10 12 10 19 3 23 -7 5 -12 60 -12 157 -2 215 -4 249 -15 257 -7 5 -4 8 7 8 9 0 17 7 17 15 0 8 -5 15 -12 15 -9 0 -9 3 0 12 16 16 15 28 -3 28 -8 0 -15 9 -15 20 0 11 7 20 15 20 8 0 15 5 15 10 0 6 9 10 20 10 11 0 20 -5 20 -10z"/>
 <path d="M3003 3113 c-13 -2 -23 -9 -23 -15 0 -6 -7 -20 -17 -30 -15 -17 -15 -20 3 -41 19 -20 20 -36 19 -192 -1 -93 -5 -225 -10 -292 -7 -109 -6 -123 8 -123 8 0 23 -3 33 -7 14 -5 16 -2 11 17 -3 13 -1 31 6 39 9 10 12 80 12 250 0 130 4 242 8 249 5 6 6 16 2 21 -6 11 12 25 38 26 49 4 45 52 -7 85 -33 20 -41 21 -83 13z"/>
 <path d="M1627 3100 c-20 -4 -39 -9 -42 -11 -2 -3 -4 -25 -5 -49 -1 -41 8 -1047 9 -1061 1 -4 43 -6 94 -4 50 1 127 2 170 3 64 2 79 5 84 20 4 9 12 20 19 25 9 5 13 45 15 140 3 209 6 271 14 290 4 9 3 17 -2 17 -11 0 -12 43 -1 51 5 3 3 18 -3 33 -10 21 -10 29 -1 35 15 9 -2 111 -21 123 -9 6 -9 8 1 8 6 0 12 11 12 24 0 13 6 27 13 29 9 4 9 8 -2 15 -9 7 -10 12 -2 16 17 11 13 36 -6 36 -10 0 -14 4 -8 8 14 10 13 152 -1 152 -7 0 -14 7 -17 15 -7 17 -81 65 -101 65 -8 0 -21 6 -28 13 -14 13 -128 17 -191 7z"/>
 <path d="M1940 3050 c0 -5 5 -10 10 -10 6 0 10 5 10 10 0 6 -4 10 -10 10 -5 0 -10 -4 -10 -10z"/>
 <path d="M2484 3025 c-4 -8 -10 -12 -15 -9 -16 10 -279 14 -279 4 0 -6 5 -10 10 -10 6 0 10 -16 10 -36 0 -19 5 -44 10 -55 8 -15 7 -23 -5 -35 -9 -9 -13 -24 -11 -33 3 -9 6 -36 7 -61 1 -25 5 -49 8 -55 3 -5 6 -28 6 -49 0 -35 3 -40 29 -47 16 -5 37 -4 47 1 15 8 65 11 222 10 9 0 34 0 55 -1 66 -3 82 7 80 49 -2 64 13 142 29 151 12 6 15 23 14 67 -1 33 -2 66 -2 74 0 9 -14 23 -31 33 -40 23 -176 24 -184 2z"/>
 <path d="M2680 2780 c0 -5 5 -10 10 -10 6 0 10 5 10 10 0 6 -4 10 -10 10 -5 0 -10 -4 -10 -10z"/>
 <path d="M2630 2605 c0 -8 5 -15 10 -15 6 0 10 7 10 15 0 8 -4 15 -10 15 -5 0 -10 -7 -10 -15z"/>
 <path d="M2220 2570 c0 -20 5 -30 15 -30 8 0 15 3 15 8 0 4 3 17 6 30 5 18 2 22 -15 22 -17 0 -21 -6 -21 -30z"/>
 <path d="M2333 2588 c-33 -11 -46 -38 -18 -38 8 0 15 -9 15 -20 0 -24 27 -39 68 -38 40 1 55 18 46 52 -11 45 -55 62 -111 44z"/>
 <path d="M2506 2565 c-33 -31 -33 -52 2 -109 21 -35 33 -45 54 -46 53 0 58 7 58 80 0 61 -2 69 -25 84 -34 22 -58 20 -89 -9z"/>
 <path d="M2202 2479 c-17 -27 -3 -44 28 -34 14 5 20 13 18 28 -4 29 -30 32 -46 6z"/>
 <path d="M2280 2475 c0 -8 5 -15 10 -15 6 0 10 7 10 15 0 8 -4 15 -10 15 -5 0 -10 -7 -10 -15z"/>
 <path d="M2360 2425 c0 -8 5 -15 10 -15 6 0 10 7 10 15 0 8 -4 15 -10 15 -5 0 -10 -7 -10 -15z"/>
 <path d="M2226 2414 c-9 -8 -16 -30 -16 -49 0 -28 5 -35 35 -49 30 -15 41 -15 70 -5 19 7 37 19 39 26 9 22 -5 43 -28 43 -11 0 -32 12 -45 25 -27 29 -34 30 -55 9z"/>
 <path d="M2405 2405 c-14 -13 -25 -29 -25 -35 0 -19 30 -23 55 -6 13 9 31 16 40 16 24 0 18 37 -7 44 -34 9 -37 8 -63 -19z"/>
 <path d="M2595 2373 c-16 -2 -59 -15 -95 -30 -87 -34 -100 -40 -135 -63 -16 -11 -40 -24 -52 -29 -11 -5 -24 -15 -28 -20 -3 -6 -14 -11 -25 -11 -10 0 -20 -7 -24 -15 -3 -8 -11 -15 -18 -15 -7 0 -18 -8 -25 -19 -6 -10 -24 -21 -38 -25 -15 -4 -32 -11 -38 -17 -7 -5 -24 -18 -39 -30 -16 -12 -30 -34 -34 -54 -3 -19 -10 -35 -15 -35 -5 0 -9 -5 -9 -11 0 -6 7 -9 15 -5 26 10 16 -18 -14 -39 -16 -10 -30 -26 -30 -35 -9 -330 -9 -391 4 -404 9 -9 10 -17 4 -23 -17 -17 -19 -592 -3 -687 7 -44 11 -83 8 -88 -7 -11 7 -80 15 -73 3 4 6 12 6 18 0 5 14 18 30 27 17 9 30 21 30 26 0 11 70 76 80 75 3 -1 26 9 53 20 103 47 129 57 176 73 27 9 61 16 75 16 25 0 74 14 157 44 24 9 99 18 182 22 l140 7 11 39 c12 38 10 68 -11 162 -8 38 -8 50 3 56 19 13 27 280 21 720 -1 102 -1 239 0 305 l3 120 -109 3 c-77 2 -113 -1 -124 -10 -12 -10 -16 -10 -19 0 -5 12 -59 14 -128 5z"/>
 <path d="M3006 2218 c-8 -144 -8 -100 -3 -551 2 -213 1 -390 -3 -392 -6 -4 -7 -73 -2 -232 2 -49 5 -63 17 -63 10 0 15 10 15 29 0 17 4 32 10 36 9 6 6 142 -4 153 -3 3 -1 11 5 18 8 10 8 22 1 43 -6 16 -9 31 -6 33 10 11 23 282 14 298 -7 13 -6 20 5 24 11 4 14 16 10 43 -8 64 -15 490 -8 497 8 8 5 155 -3 168 -3 4 -13 8 -23 8 -17 0 -19 -12 -25 -112z"/>
 <path d="M2190 2260 c0 -11 5 -20 10 -20 6 0 10 9 10 20 0 11 -4 20 -10 20 -5 0 -10 -9 -10 -20z"/>
 <path d="M2200 2210 c0 -5 5 -10 10 -10 6 0 10 5 10 10 0 6 -4 10 -10 10 -5 0 -10 -4 -10 -10z"/>
 <path d="M1877 1934 c-3 -3 -63 -7 -133 -8 -178 -3 -164 27 -164 -355 0 -168 0 -387 -1 -486 0 -258 6 -530 14 -542 9 -15 54 -22 65 -11 12 12 93 20 106 10 6 -5 44 -6 85 -3 l74 6 18 55 c19 56 23 128 15 260 -2 41 -4 147 -3 235 0 88 1 312 1 497 l1 336 -29 6 c-36 7 -41 7 -49 0z"/>
 </g>

</svg>