<!DOCTYPE svg PUBLIC "-//W3C//DTD SVG 20010904//EN" "http://www.w3.org/TR/2001/REC-SVG-20010904/DTD/svg10.dtd">
<svg version="1.0" xmlns="http://www.w3.org/2000/svg" width="550px" height="500px" viewBox="0 0 5500 5000" preserveAspectRatio="xMidYMid meet">
<g id="layer1" fill="#000000" stroke="none">
 <path d="M2797 3415 c-15 -8 -42 -28 -59 -45 -17 -17 -36 -29 -42 -27 -7 3 -12 -3 -13 -12 -1 -9 -4 -41 -8 -72 -5 -36 -3 -63 4 -77 12 -22 12 -22 -104 -22 -96 0 -115 -3 -115 -15 0 -8 4 -15 9 -15 5 0 2 -19 -6 -42 -16 -47 -36 -219 -31 -269 2 -26 8 -33 29 -36 37 -5 41 14 44 192 l3 150 215 7 c119 4 247 11 286 16 39 5 71 5 71 2 0 -20 742 -33 833 -15 46 10 714 0 763 -10 20 -4 21 -11 22 -132 1 -71 -1 -142 -4 -158 l-5 -30 -532 4 c-293 2 -606 3 -697 3 -656 -1 -960 -5 -960 -12 0 -5 -3 -15 -6 -24 -4 -11 -1 -16 10 -16 9 0 16 5 16 10 0 6 5 10 11 10 15 0 0 -109 -19 -140 -9 -14 -30 -38 -47 -55 -17 -16 -40 -43 -52 -60 l-22 -30 9 40 c5 22 13 144 16 270 8 282 -4 367 -62 453 -39 55 -81 92 -108 92 -22 0 -64 -59 -75 -108 -5 -24 -16 -51 -25 -61 -20 -22 -35 -69 -44 -136 l-7 -50 -125 -6 c-69 -4 -169 -9 -223 -12 -112 -5 -98 -19 -115 118 -28 223 -52 256 -167 224 -47 -13 -55 -22 -55 -70 0 -19 -4 -39 -9 -45 -5 -5 -11 -27 -14 -49 -2 -22 -12 -81 -21 -130 -13 -71 -16 -138 -14 -306 l3 -216 -53 22 c-29 12 -61 29 -72 37 -30 26 -91 31 -154 13 -77 -22 -90 -48 -84 -164 4 -75 9 -96 44 -163 21 -43 47 -95 57 -115 10 -21 24 -49 30 -63 7 -14 23 -26 35 -28 12 -2 37 -21 54 -43 33 -41 117 -99 143 -99 17 0 60 -23 126 -69 48 -32 65 -39 54 -21 -3 6 1 7 9 4 9 -3 14 -9 12 -13 -2 -3 26 -6 62 -6 67 0 67 0 84 35 23 48 52 240 73 484 l8 89 131 -6 c72 -3 146 -11 164 -18 39 -13 165 -7 185 9 18 16 66 17 100 3 35 -14 108 -14 139 -1 13 6 46 23 73 38 45 26 52 35 73 93 18 53 22 81 20 162 -3 94 -2 97 19 97 26 0 36 -16 53 -90 7 -30 24 -71 36 -90 24 -35 31 -60 17 -60 -5 0 -9 -37 -10 -83 -5 -191 -30 -298 -86 -369 -20 -25 -61 -31 -116 -17 -41 10 -53 19 -71 51 -19 33 -21 51 -19 133 3 99 0 115 -20 91 -20 -23 -16 -405 5 -503 17 -86 46 -150 77 -173 11 -8 40 -34 65 -57 59 -55 210 -133 257 -133 34 0 181 56 233 89 13 8 36 42 51 76 16 34 34 66 40 69 7 5 27 -9 49 -32 49 -53 191 -176 219 -191 12 -6 43 -11 70 -11 26 0 66 -5 88 -10 22 -5 81 -12 130 -15 l90 -7 39 36 c22 20 43 36 46 36 11 0 107 95 112 110 6 20 35 0 114 -78 34 -34 75 -65 90 -69 16 -4 72 -8 124 -8 106 0 102 -2 205 94 31 28 62 69 75 97 12 27 30 67 41 90 10 22 19 49 19 59 0 10 6 23 14 29 8 6 17 22 20 36 l7 25 -15 -25 c-20 -33 -20 -30 9 106 19 85 26 148 26 223 0 58 4 135 9 171 11 78 -6 313 -26 351 -7 14 -10 36 -7 47 4 16 1 22 -11 22 -10 0 -15 4 -12 8 10 17 27 266 20 308 l-6 44 -59 0 -59 0 0 58 c0 51 -5 67 -38 118 -59 91 -64 94 -142 94 -66 0 -69 -1 -113 -42 -30 -29 -51 -59 -61 -91 -19 -57 -21 -113 -3 -121 6 -3 -73 -4 -178 -4 -133 1 -202 -2 -229 -11 -59 -20 -677 0 -728 23 -10 4 -64 3 -120 -3 -57 -5 -144 -13 -194 -16 l-91 -5 -13 39 c-17 52 -1 96 50 139 100 83 138 83 240 2 72 -58 74 -61 71 -100 -3 -50 23 -57 33 -9 12 59 7 78 -21 93 -16 8 -42 27 -60 43 -71 63 -71 63 -136 63 -35 0 -74 -7 -90 -15z m1701 -32 c11 -10 36 -42 56 -72 29 -43 36 -63 36 -102 l0 -49 -98 0 c-54 0 -124 5 -155 11 -50 10 -57 15 -57 35 0 56 61 163 90 158 3 -1 11 7 18 17 17 25 82 25 110 2z m-2183 -116 c45 -73 54 -93 55 -119 0 -15 5 -30 12 -34 14 -9 3 -514 -12 -584 -18 -77 -27 -87 -102 -111 -73 -22 -108 -22 -248 -1 -36 6 -110 12 -165 14 l-100 3 -7 -90 c-15 -189 -26 -277 -37 -288 -6 -6 -11 -30 -11 -52 0 -23 -3 -45 -7 -49 -4 -4 -6 -22 -4 -41 4 -47 -7 -75 -25 -68 -7 3 -14 0 -14 -6 0 -20 -37 -11 -55 13 -10 13 -35 30 -57 37 -21 6 -38 18 -38 25 0 18 -32 34 -69 34 -17 0 -55 11 -85 25 -30 14 -59 25 -65 25 -6 0 -15 8 -20 18 -10 19 -97 87 -112 87 -12 0 -56 94 -76 160 -19 66 -34 192 -27 232 5 24 13 34 36 42 37 13 88 14 88 2 0 -4 21 -14 48 -21 60 -15 85 -27 150 -68 29 -19 55 -32 58 -29 3 3 -4 8 -17 12 -17 6 -19 9 -8 16 20 12 20 209 1 209 -11 0 -12 26 -8 131 3 72 8 135 11 139 3 5 0 18 -6 28 -9 14 -9 34 1 83 7 35 15 82 17 104 3 22 9 44 14 49 5 6 9 27 9 48 0 32 4 40 26 48 33 13 91 13 99 0 7 -12 21 -86 36 -190 22 -163 19 -155 64 -154 474 18 465 16 465 84 0 41 23 115 44 140 7 8 19 37 26 64 24 90 72 103 115 33z m152 -429 c-3 -7 -5 -2 -5 12 0 14 2 19 5 13 2 -7 2 -19 0 -25z m1405 -65 l188 -6 6 -36 c4 -20 15 -60 25 -89 16 -48 17 -72 9 -270 -5 -119 -17 -255 -26 -302 -9 -47 -20 -112 -24 -145 -11 -77 -45 -195 -70 -243 -11 -20 -20 -42 -20 -49 0 -21 -61 -83 -103 -105 -35 -18 -54 -19 -166 -16 -168 5 -230 27 -316 114 -33 34 -73 78 -88 98 -16 20 -35 36 -43 36 -8 0 -14 5 -14 10 0 6 5 10 10 10 6 0 10 12 10 28 0 15 9 45 18 67 10 22 24 63 31 90 7 28 17 68 23 90 6 22 14 67 19 100 4 33 13 92 20 130 14 87 7 357 -11 403 -18 48 -54 84 -68 70 -8 -8 -8 -16 -2 -23 18 -21 50 -206 50 -286 0 -86 -25 -287 -40 -322 -6 -12 -14 -29 -19 -37 -23 -38 -69 -159 -75 -199 -14 -93 -76 -251 -99 -251 -5 0 -18 -11 -28 -24 -40 -51 -85 -69 -185 -74 -61 -3 -94 -1 -94 6 0 5 -12 13 -27 17 -16 3 -45 18 -67 33 -21 14 -48 31 -60 37 -23 11 -75 99 -76 127 0 9 -14 40 -30 69 -26 44 -32 65 -37 146 l-6 96 39 -27 c48 -32 112 -35 171 -6 86 41 113 123 121 358 4 147 3 170 -18 247 -13 47 -26 85 -30 85 -4 0 -12 11 -18 24 l-10 23 156 -4 c86 -2 218 0 292 6 131 9 296 8 682 -6z m-1238 -24 c13 -65 6 -162 -16 -221 -19 -54 -26 -62 -72 -85 -69 -35 -113 -44 -158 -32 -38 10 -38 10 -22 35 9 13 19 22 22 19 8 -8 32 16 32 31 0 7 20 32 45 55 25 23 45 46 45 51 0 5 11 20 24 35 15 15 28 48 35 84 11 52 15 59 35 59 18 0 25 -7 30 -31z m1908 25 c150 -8 133 1 166 -89 30 -80 41 -283 21 -375 -12 -57 -24 -134 -44 -285 -22 -158 -38 -233 -58 -270 -9 -16 -26 -51 -38 -77 -12 -25 -32 -51 -44 -56 -13 -6 -40 -31 -61 -56 -25 -30 -46 -46 -61 -46 -13 0 -23 -5 -23 -11 0 -16 -106 -5 -158 17 -22 8 -49 27 -59 42 -10 14 -37 44 -59 67 -52 51 -57 72 -33 147 10 33 19 69 19 80 0 11 4 27 10 37 5 10 10 62 12 115 1 54 6 100 10 102 4 3 8 37 8 75 0 39 5 112 12 164 9 79 8 112 -6 216 -10 68 -24 132 -32 143 -19 28 -18 54 4 59 27 7 266 8 414 1z m-405 -366 c-3 -7 -5 -2 -5 12 0 14 2 19 5 13 2 -7 2 -19 0 -25z m-2673 -497 c3 -4 -6 -6 -19 -3 -14 2 -25 6 -25 8 0 8 39 4 44 -5z m46 -66 c7 -8 8 -15 2 -15 -5 0 -15 7 -22 15 -7 8 -8 15 -2 15 5 0 15 -7 22 -15z"/>
 <path d="M1457 2422 c-9 -2 -15 -8 -12 -13 8 -12 45 -12 45 0 0 13 -12 18 -33 13z"/>
 </g>
<g id="layer2" fill="#fdfdfd" stroke="none">
 <path d="M0 2500 l0 -2500 2750 0 2750 0 0 2500 0 2500 -2750 0 -2750 0 0 -2500z m2971 913 c11 -10 35 -31 52 -46 18 -16 44 -35 60 -43 28 -15 33 -34 21 -93 -10 -48 -36 -41 -33 9 3 39 1 42 -71 100 -102 81 -140 81 -240 -2 -51 -43 -67 -87 -50 -139 l13 -39 91 5 c50 3 137 11 194 16 56 6 110 7 120 3 25 -12 187 -22 453 -30 183 -5 245 -3 275 7 27 9 96 12 229 11 105 0 184 1 178 4 -18 8 -16 64 3 121 10 32 31 62 61 91 44 41 47 42 113 42 78 0 83 -3 142 -94 33 -51 38 -67 38 -118 l0 -58 59 0 59 0 6 -44 c7 -42 -10 -291 -20 -308 -3 -4 2 -8 12 -8 12 0 15 -6 11 -22 -3 -11 0 -33 7 -47 20 -38 37 -273 26 -351 -5 -36 -9 -113 -9 -171 0 -75 -7 -138 -26 -223 -29 -136 -29 -139 -9 -106 l15 25 -7 -25 c-3 -14 -12 -30 -20 -36 -8 -6 -14 -19 -14 -29 0 -10 -9 -37 -19 -59 -11 -23 -29 -63 -41 -90 -13 -28 -44 -69 -75 -97 -103 -96 -99 -94 -205 -94 -52 0 -108 4 -124 8 -15 4 -56 35 -90 69 -79 78 -108 98 -114 78 -5 -15 -101 -110 -112 -110 -3 0 -24 -16 -46 -36 l-39 -36 -90 7 c-49 3 -108 10 -130 15 -22 5 -62 10 -88 10 -27 0 -58 5 -70 11 -28 15 -170 138 -219 191 -22 23 -42 37 -49 32 -6 -3 -24 -35 -40 -69 -15 -34 -38 -68 -51 -76 -52 -33 -199 -89 -233 -89 -47 0 -198 78 -257 133 -25 23 -54 49 -65 57 -31 23 -60 87 -77 173 -21 98 -25 480 -5 503 20 24 23 8 20 -91 -2 -82 0 -100 19 -133 18 -32 30 -41 71 -51 55 -14 96 -8 116 17 56 71 81 178 86 369 1 46 5 83 10 83 14 0 7 25 -17 60 -12 19 -29 60 -36 90 -17 74 -27 90 -53 90 -21 0 -22 -3 -19 -97 2 -81 -2 -109 -20 -162 -21 -58 -28 -67 -73 -93 -27 -15 -60 -32 -73 -38 -31 -13 -104 -13 -139 1 -34 14 -82 13 -100 -3 -20 -16 -146 -22 -185 -9 -18 7 -92 15 -164 18 l-131 6 -8 -89 c-21 -244 -50 -436 -73 -484 -17 -35 -17 -35 -84 -35 -36 0 -64 3 -62 6 2 4 -3 10 -12 13 -8 3 -12 2 -9 -4 11 -18 -6 -11 -54 21 -66 46 -109 69 -126 69 -26 0 -110 58 -143 99 -17 22 -42 41 -54 43 -12 2 -28 14 -35 28 -6 14 -20 42 -30 63 -10 20 -36 72 -57 115 -35 67 -40 88 -44 163 -6 116 7 142 84 164 63 18 124 13 154 -13 11 -8 43 -25 72 -37 l53 -22 -3 216 c-2 168 1 235 14 306 9 49 19 108 21 130 3 22 9 44 14 49 5 6 9 26 9 45 0 48 8 57 55 70 115 32 139 -1 167 -224 17 -137 3 -123 115 -118 54 3 154 8 223 12 l125 6 7 50 c9 67 24 114 44 136 9 10 20 37 25 61 11 49 53 108 75 108 27 0 69 -37 108 -92 58 -86 70 -171 62 -453 -3 -126 -11 -248 -16 -270 l-9 -40 22 30 c12 17 35 44 52 60 17 17 38 41 47 55 19 31 34 140 19 140 -6 0 -11 -4 -11 -10 0 -5 -7 -10 -16 -10 -11 0 -14 5 -10 16 3 9 6 19 6 24 0 7 304 11 960 12 91 0 404 -1 697 -3 l532 -4 5 30 c3 16 5 87 4 158 -1 121 -2 128 -22 132 -49 10 -717 20 -763 10 -91 -18 -833 -5 -833 15 0 3 -32 3 -71 -2 -39 -5 -167 -12 -286 -16 l-215 -7 -3 -150 c-3 -178 -7 -197 -44 -192 -21 3 -27 10 -29 36 -5 50 15 222 31 269 8 23 11 42 6 42 -5 0 -9 7 -9 15 0 12 19 15 115 15 116 0 116 0 104 22 -7 14 -9 41 -4 77 4 31 7 63 8 72 1 9 6 15 13 12 6 -2 25 10 42 27 47 46 80 60 149 60 45 0 69 -5 84 -17z"/>
 <path d="M4388 3381 c-7 -10 -15 -18 -18 -17 -29 5 -90 -102 -90 -158 0 -20 7 -25 57 -35 31 -6 101 -11 155 -11 l98 0 0 49 c0 39 -7 59 -36 102 -20 30 -45 62 -56 72 -28 23 -93 23 -110 -2z"/>
 <path d="M2233 3300 c-11 -10 -26 -40 -33 -66 -7 -27 -19 -56 -26 -64 -21 -25 -44 -99 -44 -140 0 -68 9 -66 -465 -84 -45 -1 -42 -9 -64 154 -15 104 -29 178 -36 190 -8 13 -66 13 -99 0 -22 -8 -26 -16 -26 -48 0 -21 -4 -42 -9 -48 -5 -5 -11 -27 -14 -49 -2 -22 -10 -69 -17 -104 -10 -49 -10 -69 -1 -83 6 -10 9 -23 6 -28 -3 -4 -8 -67 -11 -139 -4 -105 -3 -131 8 -131 19 0 19 -197 -1 -209 -11 -7 -9 -10 8 -16 13 -4 20 -9 17 -12 -3 -3 -29 10 -58 29 -65 41 -90 53 -150 68 -27 7 -48 17 -48 21 0 12 -51 11 -88 -2 -23 -8 -31 -18 -36 -42 -7 -40 8 -166 27 -232 20 -66 64 -160 76 -160 15 0 102 -68 112 -87 5 -10 14 -18 20 -18 6 0 35 -11 65 -25 30 -14 68 -25 85 -25 37 0 69 -16 69 -34 0 -7 17 -19 38 -25 22 -7 47 -24 57 -37 18 -24 55 -33 55 -13 0 6 7 9 14 6 18 -7 29 21 25 68 -2 19 0 37 4 41 4 4 7 26 7 49 0 22 5 46 11 52 11 11 22 99 37 288 l7 90 100 -3 c55 -2 129 -8 165 -14 140 -21 175 -21 248 1 75 24 84 34 102 111 15 70 26 575 12 584 -7 4 -12 19 -12 34 -1 26 -10 46 -55 119 -28 45 -57 57 -82 33z m-743 -891 c0 -12 -37 -12 -45 0 -3 5 3 11 12 13 21 5 33 0 33 -13z"/>
 <path d="M2462 2850 c0 -14 2 -19 5 -12 2 6 2 18 0 25 -3 6 -5 1 -5 -13z"/>
 <path d="M3190 2779 c-74 -6 -206 -8 -292 -6 l-156 4 10 -23 c6 -13 14 -24 18 -24 4 0 17 -38 30 -85 21 -77 22 -100 18 -247 -8 -235 -35 -317 -121 -358 -59 -29 -123 -26 -171 6 l-39 27 6 -96 c5 -81 11 -102 37 -146 16 -29 30 -60 30 -69 1 -28 53 -116 76 -127 12 -6 39 -23 60 -37 22 -15 51 -30 67 -33 15 -4 27 -12 27 -17 0 -7 33 -9 94 -6 100 5 145 23 185 74 10 13 23 24 28 24 23 0 85 158 99 251 6 40 52 161 75 199 5 8 13 25 19 37 15 35 40 236 40 322 0 80 -32 265 -50 286 -6 7 -6 15 2 23 14 14 50 -22 68 -70 18 -46 25 -316 11 -403 -7 -38 -16 -97 -20 -130 -5 -33 -13 -78 -19 -100 -6 -22 -16 -62 -23 -90 -7 -27 -21 -68 -31 -90 -9 -22 -18 -52 -18 -67 0 -16 -4 -28 -10 -28 -5 0 -10 -4 -10 -10 0 -5 6 -10 14 -10 8 0 27 -16 43 -36 15 -20 55 -64 88 -98 86 -87 148 -109 316 -114 112 -3 131 -2 166 16 42 22 103 84 103 105 0 7 9 29 20 49 25 48 59 166 70 243 4 33 15 98 24 145 9 47 21 183 26 302 8 198 7 222 -9 270 -10 29 -21 69 -25 89 l-6 36 -188 6 c-386 14 -551 15 -682 6z"/>
 <path d="M2569 2721 c-7 -36 -20 -69 -35 -84 -13 -15 -24 -30 -24 -35 0 -5 -20 -28 -45 -51 -25 -23 -45 -48 -45 -55 0 -15 -24 -39 -32 -31 -3 3 -13 -6 -22 -19 -16 -25 -16 -25 22 -35 45 -12 89 -3 158 32 46 23 53 31 72 85 22 59 29 156 16 221 -5 24 -12 31 -30 31 -20 0 -24 -7 -35 -59z"/>
 <path d="M4128 2773 c-22 -5 -23 -31 -4 -59 8 -11 22 -75 32 -143 14 -104 15 -137 6 -216 -7 -52 -12 -125 -12 -164 0 -38 -4 -72 -8 -75 -4 -2 -9 -48 -10 -102 -2 -53 -7 -105 -12 -115 -6 -10 -10 -26 -10 -37 0 -11 -9 -47 -19 -80 -24 -75 -19 -96 33 -147 22 -23 49 -53 59 -67 10 -15 37 -34 59 -42 52 -22 158 -33 158 -17 0 6 10 11 23 11 15 0 36 16 61 46 21 25 48 50 61 56 12 5 32 31 44 56 12 26 29 61 38 77 20 37 36 112 58 270 20 151 32 228 44 285 20 92 9 295 -21 375 -33 90 -16 81 -166 89 -148 7 -387 6 -414 -1z"/>
 <path d="M4132 2420 c0 -14 2 -19 5 -12 2 6 2 18 0 25 -3 6 -5 1 -5 -13z"/>
 <path d="M1420 1916 c0 -2 11 -6 25 -8 13 -3 22 -1 19 3 -5 9 -44 13 -44 5z"/>
 <path d="M1490 1845 c7 -8 17 -15 22 -15 6 0 5 7 -2 15 -7 8 -17 15 -22 15 -6 0 -5 -7 2 -15z"/>
 </g>

</svg>